<?xml version="1.0" encoding="UTF-8"?>
<svg viewBox="0 0 2000 866" xmlns="http://www.w3.org/2000/svg" xmlns:xlink="http://www.w3.org/1999/xlink">
 <defs>
  <filter id="g">
   <feGaussianBlur stdDeviation="1.4891"/>
  </filter>
  <linearGradient id="j">
   <stop stop-color="#d0d0d0" offset="0"/>
   <stop stop-color="#cdcdcd" offset="1"/>
  </linearGradient>
  <linearGradient id="b">
   <stop stop-color="#c4c4c4" offset="0"/>
   <stop stop-color="#a0a0a0" offset="1"/>
  </linearGradient>
  <linearGradient id="k">
   <stop stop-color="#e6e6e6" offset="0"/>
   <stop stop-color="#4f4f4f" offset="1"/>
  </linearGradient>
  <linearGradient id="a">
   <stop stop-color="#aeaeae" offset="0"/>
   <stop stop-color="#e6e6e6" stop-opacity="0" offset="1"/>
  </linearGradient>
  <linearGradient id="ae" x2="0" y1="31.561" y2="845.5" gradientUnits="userSpaceOnUse">
   <stop stop-color="#fafafa" offset="0"/>
   <stop stop-color="#e8e8e8" offset=".0676"/>
   <stop stop-color="#ebebeb" offset=".5338"/>
   <stop stop-color="#f8f8f8" offset=".9181"/>
   <stop stop-color="#bebebe" offset=".9635"/>
   <stop stop-color="#464646" offset="1"/>
  </linearGradient>
  <linearGradient id="aa" x1="963.03" x2="963.03" y1="845.25" y2="521.44" gradientUnits="userSpaceOnUse">
   <stop stop-color="#737478" offset="0"/>
   <stop stop-color="#818285" offset=".01"/>
   <stop stop-color="#b5b6b8" offset=".0635"/>
   <stop stop-color="#cacacc" offset="1"/>
  </linearGradient>
  <linearGradient id="ao" x1="1916.1" x2="1962.3" y1="696.37" y2="572.75" gradientUnits="userSpaceOnUse">
   <stop stop-color="#858585" offset="0"/>
   <stop stop-color="#787878" offset="1"/>
  </linearGradient>
  <linearGradient id="an" x1="1947.5" x2="1960.9" gradientUnits="userSpaceOnUse">
   <stop stop-color="#b9b9b9" offset="0"/>
   <stop stop-color="#cdcdcd" offset="1"/>
  </linearGradient>
  <linearGradient id="am" x1="16.568" x2="109.88" gradientUnits="userSpaceOnUse">
   <stop stop-color="#cbcbcb" offset="0"/>
   <stop stop-color="#e2e2e2" offset="1"/>
  </linearGradient>
  <linearGradient id="f">
   <stop stop-color="#cdcdcd" offset="0"/>
   <stop stop-color="#fff" stop-opacity=".5398" offset=".5"/>
   <stop stop-color="#d2d2d2" stop-opacity=".5221" offset=".75"/>
   <stop stop-color="#fff" stop-opacity="0" offset="1"/>
  </linearGradient>
  <linearGradient id="i">
   <stop stop-color="#fff" offset="0"/>
   <stop stop-color="#eff3f7" offset=".0811"/>
   <stop stop-color="#fff" offset="1"/>
  </linearGradient>
  <linearGradient id="af" x1="368.82" x2="368.82" y1="55.734" y2="70.623" gradientUnits="userSpaceOnUse">
   <stop stop-color="#dbdbdb" offset="0"/>
   <stop stop-color="#fff" offset="1"/>
  </linearGradient>
  <linearGradient id="ad" x2="0" y1="821.61" y2="770.98" gradientUnits="userSpaceOnUse" xlink:href="#a"/>
  <linearGradient id="ac" x2="0" y1="852.66" y2="809.07" gradientUnits="userSpaceOnUse" xlink:href="#a"/>
  <linearGradient id="ab" x2="0" y1="852.66" y2="809.07" gradientUnits="userSpaceOnUse" xlink:href="#a"/>
  <linearGradient id="al" x2="0" y1="853.07" y2="809.48" gradientUnits="userSpaceOnUse" xlink:href="#a"/>
  <linearGradient id="ak" x2="0" y1="853.37" y2="809.79" gradientUnits="userSpaceOnUse" xlink:href="#a"/>
  <linearGradient id="aj" x2="0" y1="855.26" y2="804.63" gradientUnits="userSpaceOnUse" xlink:href="#a"/>
  <linearGradient id="ai" x2="0" y1="855.26" y2="804.63" gradientUnits="userSpaceOnUse" xlink:href="#a"/>
  <linearGradient id="e" x2="0" y1="327.75" y2="218.87" gradientUnits="userSpaceOnUse" xlink:href="#j"/>
  <linearGradient id="d" x2="0" y1="568.21" y2="452.54" gradientUnits="userSpaceOnUse" xlink:href="#j"/>
  <linearGradient id="ah" x2="0" y1="56.572" y2="188.6" gradientUnits="userSpaceOnUse" xlink:href="#i"/>
  <linearGradient id="ag" x2="0" y1="22.924" y2="154.96" gradientTransform="matrix(-.99993 -.01143 -.01143 .99993 1372.5 35.395)" gradientUnits="userSpaceOnUse" xlink:href="#i"/>
  <radialGradient id="c" cx="103.79" cy="654.88" r="6.3134" gradientUnits="userSpaceOnUse">
   <stop stop-color="#fff" stop-opacity="0" offset="0"/>
   <stop stop-color="#989898" stop-opacity=".3894" offset=".7568"/>
   <stop stop-color="#292929" stop-opacity=".9912" offset="1"/>
  </radialGradient>
  <radialGradient id="x" cx="-298.52" cy="-153.31" r="562.73" gradientTransform="matrix(1.629 -.94051 .80666 1.3972 392.55 277.91)" gradientUnits="userSpaceOnUse">
   <stop stop-color="#a2a2a2" offset="0"/>
   <stop offset="1"/>
  </radialGradient>
  <radialGradient id="h" cx="1773.6" cy="279.8" r="54.441" gradientTransform="matrix(1.4415 -.3624 .39178 1.5583 -890.85 489.76)" gradientUnits="userSpaceOnUse">
   <stop stop-color="#c7c7c7" offset="0"/>
   <stop stop-color="#fff" stop-opacity=".498" offset=".5"/>
   <stop stop-color="#bbb" stop-opacity=".2471" offset=".75"/>
   <stop stop-color="#fff" stop-opacity="0" offset="1"/>
  </radialGradient>
  <radialGradient id="p" cx="1773.6" cy="279.8" r="54.441" gradientTransform="matrix(1.4415 -.3624 .39178 1.5583 -890.85 489.76)" gradientUnits="userSpaceOnUse">
   <stop stop-color="#c7c7c7" stop-opacity=".7611" offset="0"/>
   <stop stop-color="#fff" stop-opacity=".3805" offset=".5"/>
   <stop stop-color="#bbb" stop-opacity=".2471" offset=".75"/>
   <stop stop-color="#fff" stop-opacity="0" offset="1"/>
  </radialGradient>
  <radialGradient id="z" cx="1944" cy="647.99" r="3.9472" gradientTransform="matrix(1.3583 0 0 1.2734 -696.61 -177.46)" gradientUnits="userSpaceOnUse" xlink:href="#k"/>
  <radialGradient id="y" cx="1944" cy="647.99" r="3.9472" gradientTransform="matrix(1.3574 .04841 -.04538 1.2726 -1304.2 -218.01)" gradientUnits="userSpaceOnUse" xlink:href="#k"/>
  <radialGradient id="w" cx="563.53" cy="22.04" r="4.5259" gradientTransform="matrix(1 0 0 .81975 0 3.9727)" gradientUnits="userSpaceOnUse" xlink:href="#b"/>
  <radialGradient id="v" cx="571.56" cy="21.833" r="1.875" gradientTransform="matrix(1 0 0 1.6889 0 -15.041)" gradientUnits="userSpaceOnUse" xlink:href="#b"/>
  <radialGradient id="u" cx="580.16" cy="21.625" r="6.4688" gradientTransform="matrix(1 0 0 .48309 0 11.178)" gradientUnits="userSpaceOnUse" xlink:href="#b"/>
  <radialGradient id="t" cx="601.49" cy="21.977" r="8.7422" gradientTransform="matrix(1 0 0 .41915 0 12.765)" gradientUnits="userSpaceOnUse" xlink:href="#b"/>
  <radialGradient id="s" cx="-12.472" cy="55.625" r="8.7422" gradientTransform="matrix(1 0 0 .41915 0 32.31)" gradientUnits="userSpaceOnUse" xlink:href="#b"/>
  <radialGradient id="r" cx="11.684" cy="55.141" r="15.351" gradientTransform="matrix(1 0 0 .21018 0 43.552)" gradientUnits="userSpaceOnUse" xlink:href="#b"/>
  <radialGradient id="q" cx="589.56" cy="22.375" r="2.875" gradientTransform="matrix(1 0 0 .65217 0 7.7826)" gradientUnits="userSpaceOnUse" xlink:href="#b"/>
  <radialGradient id="o" cx="-404.05" cy="507.29" r="48.634" gradientTransform="matrix(2.1693 .3857 -.33324 1.8742 653.12 -265.52)" gradientUnits="userSpaceOnUse" xlink:href="#f"/>
  <radialGradient id="n" cx="-395.07" cy="520.18" r="48.634" gradientTransform="matrix(1.4515 -.18952 .2035 1.5585 77.711 -363.88)" gradientUnits="userSpaceOnUse" xlink:href="#f"/>
  <radialGradient id="m" cx="-416.18" cy="510.96" r="48.634" gradientTransform="matrix(1.6731 -.38872 .39572 1.7032 106.38 -507.08)" gradientUnits="userSpaceOnUse" xlink:href="#f"/>
  <radialGradient id="l" cx="-427.18" cy="489.91" r="48.634" gradientTransform="matrix(-.21015 -2.1004 1.7654 -.17664 -1343 -285.68)" gradientUnits="userSpaceOnUse" xlink:href="#f"/>
 </defs>
 <g transform="translate(630.71 -33.648)">
  <path transform="translate(-630.71 33.648)" d="m158.09 765.49 33.84 4.0406-16.162 12.879s-7.8324 1.2792-3.0304 9.5964c0 0 23.219 31.315 50.508 31.315h87.126c9.1623 0 5.5558-12.627 5.5558-12.627l14.9 14.647-15.91 17.425-105.31-2.7779-42.679-29.042-18.183-38.386z" fill="#4d4d4d"/>
  <path transform="translate(-630.71 33.648)" d="m25.406 518.38c-1.0084 0.17379-1.9116 0.47634-1.9062 2.4062 0 0 16.332 168.81 136.22 295.19 23.337 27.727 59.875 32.344 59.875 32.344h1419.8c14.286-0.0893 34.933-32.598 54.844-52.062 0 0 15.796-13.586 45.406-14.344l116.94-4.5625c10.259-0.20203 18.688-8.5625 18.688-8.5625l27.001-42.188c2.6393-4.1239-1.1579-4.6521-3.5322-3.2812-21.452 12.385-1863.2-196.72-1863.2-196.72s-3.9451-5.0497-6.8125-6.0625c-1.043-0.36838-1.8374-2.4212-3.375-2.1562zm146.97 263.84c34.63 0.0297 69.411 1.6944 104.06 2.7188 0 0 26.429 3.4688 40 27.844 0 0 4.2634 5.9955-3.5938 14.656 0 0-2.0804 2.933-7.125 2.8438l-80.375-0.34375c-9.0668-0.0403-40.889-7.9286-57.844-34.281-2.9338-9.4075 3.1869-12.972 4.875-13.438z" fill="url(#aa)" stroke="#666"/>
  <path transform="translate(-630.71 33.648)" d="m1957.1 600.48s2.4748-1e-5 3.3587 2.2981c-2.8284 14.496-7.6014 25.809-7.6014 25.809-2.4749 2.1213-4.9497 0.35355-4.9497 0.35355s5.8336-15.38 9.1924-28.461z" fill="url(#an)" stroke="#4d4d4d" stroke-width=".8"/>
  <path transform="translate(-630.71 33.648)" d="m1942.3 645.03s2.6917 0.51606 3.3587 3.0052c0.3953 1.4753-0.5901 4.2193-2.3865 4.773-2.3261 0.71695-4.0659-0.26517-4.0659-0.26517z" fill="url(#z)" stroke="#4d4d4d"/>
  <path d="m1303.7 698s2.6717 0.61167 3.2495 3.123c0.3425 1.4884-0.7401 4.1956-2.555 4.6849-2.3503 0.63358-4.054-0.4099-4.054-0.4099z" fill="url(#y)" stroke="#4d4d4d"/>
  <path transform="translate(-630.71 33.648)" d="m1910.8 692.94c0.239 2.6415 7.1643 7.553 9.0156 2.4749 0 0 28.461-51.796 44.017-120.74 0.9998-4.4311-4.554-4.7732-6.1872-1.9445-22.537 39.035-50.861 75.841-46.846 120.21z" fill="url(#ao)" stroke="#4d4d4d" stroke-width=".9"/>
  <path transform="translate(-630.71 33.648)" d="m1963.1 528.18c1.0707 5.7338 7.8459 7.0224 8.6621 2.2097 39.841-234.91-74.82-394.35-76.307-396.33-3.1819-4.2426-6.6828-2.3851-7.071-0.61871-28.731 130.74 74.716 394.74 74.716 394.74z" fill="#bababa" stroke="#4d4d4d" stroke-width=".8"/>
  <path transform="translate(-630.71 33.648)" d="m28 508.62c2.25 2.25-4.7293 5.6221-5.5 0.25-30.151-210.17 74.79-372.11 80.28-377.62 3.9603-3.9774 6.6036 1.25 6.6036 1.25z" fill="url(#am)" stroke="#666"/>
  <path d="m26.536 57.868c0-3.8455-3.1483-5.453-3.1483-5.453h-23.102s-3.4525 2.0573-3.4525 5.453z" fill="url(#r)" stroke="#666"/>
  <path transform="translate(-630.71 33.648)" d="m559.5 25.25v-4c0-2.6267 1.0703-2.4163 1.0703-2.4163h5.9297s1.0519-0.1933 1.0519 2.4163v4z" fill="url(#w)" stroke="#666"/>
  <path transform="translate(-630.71 33.648)" d="m593.25 25.141v-3.516c0-2.2969 1.8922-2.8125 2.8125-2.8125h5.1875s1.1875 0.5625 1.7188 1.7188h4.5312s2.2344 0.78446 2.2344 4.6098z" fill="url(#t)" stroke="#666"/>
  <path d="m-20.714 58.789v-3.516c0-2.2969 1.8922-2.8125 2.8125-2.8125h5.1875s1.1875 0.5625 1.7188 1.7188h4.5312s2.2344 0.78446 2.2344 4.6098z" fill="url(#s)" stroke="#666"/>
  <path transform="translate(-630.71 33.648)" d="m570.19 24.375v-4.375s1.4375-1.875 2.75 0v4.5z" fill="url(#v)" stroke="#666"/>
  <path transform="translate(-630.71 33.648)" d="m574.19 24.25v-4.0625h1.875s0.45313-1.0938 1.1875-1.1875h6.9375c1.0012 0 1.9375 1.1552 1.9375 1.9375v3.3125z" fill="url(#u)" stroke="#666"/>
  <path transform="translate(-630.71 33.648)" d="m587.19 23.688v-2.6875h4.75v2.75z" fill="url(#q)" stroke="#666"/>
  <path d="m-188.28 56.085s-4.0625-0.17764-4.0625 4.0625v4.5938l1122.3-0.09375v-5.375c0-3.3439-5.0625-3.1875-5.0625-3.1875h-298.03s-3.6271 4.3865-9.375 0h-498.88s-3.9619 4.5078-9 0h-297.91z" fill="url(#af)" stroke="#666" stroke-width=".7"/>
  <path d="m944.82 54.554c-6.5189 0.42914-6 8.5-6 8.5l0.5938 1.5938h65.188c18.562-0.0017 26.906 16.281 26.906 16.281l18.687 23.219c17.143 26.786 44.438 25.25 44.438 25.25l119.19 3.5312c22.47 0.66649 30.009 6.647 38.219 18.688 0.3876-1.8971 0.296-3.9639-0.9375-5.8438l-38.281-58.375c-24.302-29.923-56.719-30.938-56.719-30.938l-210.62-1.9062c-0.2252-0.0026-0.446-0.01384-0.6563 0z" fill="url(#ag)" stroke="#ccc"/>
  <path d="m-414.53 57.179s-32.451 0.66964-57.094 30.312l-42.875 56.094c-1.8376 2.4043-0.81884 5.1038 0.5 7.0938 2.1339-3.3825 4.3125-6.765 6.5312-10.156 4.2985-6.57 16.156-6.5625 16.156-6.5625l131.81-4.0625c19.698-1.5152 32.844-13.625 32.844-13.625l38.25-40.312s9.3242-11.218 17.188-11.219h73.812c-0.19328-2.4639-1.2504-7.0625-6.5312-7.0625l-210.59-0.5z" fill="url(#ah)" stroke="#ccc"/>
  <path transform="translate(-630.71 33.648)" d="m342.31 42.298-38.25 40.329s-13.132 12.122-32.83 13.637l-131.82 4.0406s-11.864-4e-3 -16.162 6.566c-232.38 355.19 4.0508 663.65 4.0508 663.65s2.9042 3.5355 14.142 3.5355l128.78 6.5508s30.468-1.1758 49.538 31.855c5.2919 9.1659 35.391 33.044 45.416 33.1h1275.4c12.326 0 30.323-30.528 54.252-52.163 3.192-2.5513 17.865-11.878 41.377-12.844l121.49-4.9895s11.606-2.4282 16.606-9.5711c127.34-185.97 144.29-448.74 8.413-648.01-8.2097-12.04-15.742-18.021-38.212-18.688l-119.2-3.5355s-27.304 1.5319-44.447-25.254l-18.688-23.234s-8.3235-16.281-26.886-16.28l-1275.8 0.11729c-7.8633 7.2e-4 -17.18 11.189-17.18 11.189z" fill="url(#ae)" stroke="#808080" stroke-width=".6"/>
  <path transform="matrix(1.0111 0 0 1.0111 -642.61 30.024)" d="m1892.2 388.7c0 69.904-56.668 126.57-126.57 126.57s-126.57-56.668-126.57-126.57 56.668-126.57 126.57-126.57 126.57 56.668 126.57 126.57z" fill="none" filter="url(#g)" stroke="#fff" stroke-dashoffset="1.86" stroke-width="4.5572"/>
  <path transform="matrix(1.0111 0 0 1.0111 -644.73 27.196)" d="m1892.2 388.7c0 69.904-56.668 126.57-126.57 126.57s-126.57-56.668-126.57-126.57 56.668-126.57 126.57-126.57 126.57 56.668 126.57 126.57z" fill="none" filter="url(#g)" opacity=".6335" stroke="#a6a6a6" stroke-dashoffset="1.86" stroke-width="4.5572"/>
  <path d="m-498.86 704.17h8.5761v8.5761h-8.5761z" fill="#999" fill-rule="evenodd"/>
  <path transform="translate(-628.82 33.648)" d="m136.5 652.48c11.088 0 20.077 8.9887 20.077 20.077" fill="none" stroke="#808080" stroke-dashoffset="1.86" stroke-linecap="square" stroke-linejoin="round" stroke-width="1.5"/>
  <path transform="matrix(.72327 0 0 .72327 -591.05 219.76)" d="m136.5 652.48c11.088 0 20.077 8.9887 20.077 20.077" fill="none" stroke="#808080" stroke-dashoffset="1.86" stroke-linecap="square" stroke-linejoin="round" stroke-width="2.0739"/>
  <path transform="matrix(.41509 0 0 .41509 -548.98 427.03)" d="m136.5 652.48c11.088 0 20.077 8.9887 20.077 20.077" fill="none" stroke="#808080" stroke-dashoffset="1.86" stroke-linecap="square" stroke-linejoin="round" stroke-width="3.6136"/>
  <g transform="matrix(1.0548 0 0 1.0548 160.1 -41.173)" fill="#808080">
   <path d="m-632.29 628.1c8.7797 0 18.429-0.55695 18.429-1.5119 0-0.30917-8.3576-0.39798-18.429-0.39798s-18.429 0.0888-18.429 0.39798c0 0.95494 9.6491 1.5119 18.429 1.5119"/>
   <path d="m-632.29 631.11c4.2035 0 13.73-0.55038 13.73-1.3036 0-0.22585-6.4017-0.27957-13.73-0.27957s-13.729 0.0537-13.729 0.27957c0 0.7532 9.5252 1.3036 13.729 1.3036"/>
   <path d="m-632.29 633.72c4.6497 0 9.9265-0.5131 9.9265-1.0975 0-0.24558-4.5017-0.19515-9.9265-0.19515s-9.9265-0.0504-9.9265 0.19515c0 0.58436 5.2768 1.0975 9.9265 1.0975"/>
   <path d="m-632.28259,624.50371c.54819,0 1.17969-.0164 1.79475-.13266 .694-.13156.99002-.43525 1.0865-1.08759 .0877-.60081-.22366-1.55355-.38592-2.39885-.22914-1.19175.32452-1.75857 1.84737-1.75857 1.82984,0 2.24426.87819 3.07311,3.07311 .49885,1.31784 1.02072,1.83313 2.92182,2.0206 1.70704.16775 3.85372.29164 6.49815.29164 2.17848,0 2.40213-.62603-.86065-1.15776-2.06774-.33659-3.29677-.83105-4.01927-1.69279-.79706-.94945-.98125-1.5371-1.5086-2.16971-.59313-.71154-1.37155-1.03277-2.34622-1.15556-2.37472-.29822-5.10467-.46596-8.10104-.46596s-5.72631.16774-8.10104.46596c-.97576.12279-1.75418.44402-2.34731,1.15556-.52626.63261-.71154,1.22026-1.5086,2.16971-.7225.86174-1.95153,1.3562-4.01818,1.69279-3.26278.53173-3.03912,1.15776-.86174,1.15776 2.64553,0 4.79221-.12389 6.49925-.29164 1.9-.18747 2.42297-.70276 2.92072-2.0206 .82994-2.19492 1.24327-3.07311 3.0742-3.07311 1.52176,0 2.07542.56682 1.84738,1.75857-.16226.8453-.47473,1.79804-.38592,2.39885 .0954.65234.3925.95603 1.0854,1.08759 .61506.11622 1.24766.13266 1.79584.13266"/>
  </g>
  <path d="m-293.11 233.58h28.106a9.9381 9.9381 0 0 1 9.9381 9.9381v2.5997a9.9381 9.9381 0 0 1 -9.9381 9.9381h-28.106a9.9381 9.9381 0 0 1 -9.9381 -9.9381v-2.5997a9.9381 9.9381 0 0 1 9.9381 -9.9381" fill="#1a1a1a" fill-rule="evenodd"/>
  <path d="m1001.9 233.58h28.106a9.9381 9.9381 0 0 1 9.9381 9.9381v2.5997a9.9381 9.9381 0 0 1 -9.9381 9.9381h-28.106a9.9381 9.9381 0 0 1 -9.9381 -9.9381v-2.5997a9.9381 9.9381 0 0 1 9.9381 -9.9381" fill="#1a1a1a" fill-rule="evenodd"/>
  <text transform="scale(1.0414,.9603)" x="1133.6886" y="653.14404" fill="#808080" font-family="Sans" font-size="21.798" letter-spacing="0" word-spacing="0">
   <tspan x="1133.6886" y="653.14404">POWER</tspan>
  </text>
  <text transform="scale(1.0414,.9603)" x="1123.4736" y="746.64526" fill="#808080" font-family="Sans" font-size="21.798" letter-spacing="0" word-spacing="0">
   <tspan x="1123.4736" y="746.64526">HOLD</tspan>
  </text>
  <text transform="scale(1.0414,.9603)" x="6.89757" y="872.74689" fill="#808080" font-family="Sans" font-size="21.798" letter-spacing="0" word-spacing="0">
   <tspan x="6.89757" y="872.74689">VOL</tspan>
  </text>
  <path transform="matrix(1.14 0 0 1.14 -640.89 -38.56)" d="m110.11 654.88c0 3.4868-2.8266 6.3135-6.3134 6.3135s-6.3135-2.8266-6.3135-6.3135 2.8266-6.3134 6.3135-6.3134 6.3134 2.8266 6.3134 6.3134z" fill="#3ae2a5" fill-rule="evenodd"/>
  <path transform="matrix(1.14 0 0 1.14 -640.89 -38.56)" d="m110.11 654.88c0 3.4868-2.8266 6.3135-6.3134 6.3135s-6.3135-2.8266-6.3135-6.3135 2.8266-6.3134 6.3135-6.3134 6.3134 2.8266 6.3134 6.3134z" fill="url(#c)" fill-rule="evenodd"/>
  <path transform="matrix(1.14 0 0 1.14 -675.2 -128.6)" d="m110.11 654.88c0 3.4868-2.8266 6.3135-6.3134 6.3135s-6.3135-2.8266-6.3135-6.3135 2.8266-6.3134 6.3135-6.3134 6.3134 2.8266 6.3134 6.3134z" fill="#ffb133" fill-rule="evenodd"/>
  <path transform="matrix(1.14 0 0 1.14 -675.2 -128.6)" d="m110.11 654.88c0 3.4868-2.8266 6.3135-6.3134 6.3135s-6.3135-2.8266-6.3135-6.3135 2.8266-6.3134 6.3135-6.3134 6.3134 2.8266 6.3134 6.3134z" fill="url(#c)" fill-rule="evenodd"/>
  <path transform="matrix(1.14 0 0 1.14 1139.6 -38.431)" d="m110.11 654.88c0 3.4868-2.8266 6.3135-6.3134 6.3135s-6.3135-2.8266-6.3135-6.3135 2.8266-6.3134 6.3135-6.3134 6.3134 2.8266 6.3134 6.3134z" fill="#ffb133" fill-rule="evenodd"/>
  <path transform="matrix(1.14 0 0 1.14 1139.6 -38.431)" d="m110.11 654.88c0 3.4868-2.8266 6.3135-6.3134 6.3135s-6.3135-2.8266-6.3135-6.3135 2.8266-6.3134 6.3135-6.3134 6.3134 2.8266 6.3134 6.3134z" fill="url(#c)" fill-rule="evenodd"/>
  <path transform="matrix(1.14 0 0 1.14 1173.8 -126.56)" d="m110.11 654.88c0 3.4868-2.8266 6.3135-6.3134 6.3135s-6.3135-2.8266-6.3135-6.3135 2.8266-6.3134 6.3135-6.3134 6.3134 2.8266 6.3134 6.3134z" fill="#3ae2a5" fill-rule="evenodd"/>
  <path transform="matrix(1.14 0 0 1.14 1173.8 -126.56)" d="m110.11 654.88c0 3.4868-2.8266 6.3135-6.3134 6.3135s-6.3135-2.8266-6.3135-6.3135 2.8266-6.3134 6.3135-6.3134 6.3134 2.8266 6.3134 6.3134z" fill="url(#c)" fill-rule="evenodd"/>
  <path d="m-186.54 120.36h1109.5a8 8 0 0 1 8 8v627.88a8 8 0 0 1 -8 8h-1109.5a8 8 0 0 1 -8 -8v-627.88a8 8 0 0 1 8 -8" fill="url(#x)" fill-rule="evenodd" stroke="#000" stroke-dashoffset="1.86" stroke-linecap="square" stroke-linejoin="round" stroke-width="2.5"/>
  <path transform="translate(-630.71 33.648)" d="m401.54 770.04h97.227c5.2001 0 6.0649 2.6189 6.0609 5.3035-0.0359 23.986-28.215 47.474-54.296 47.474-26.339 0-55.404-23.233-55.306-47.474 0.0111-2.7485 0.6304-5.3035 6.3136-5.3035z" fill="url(#ad)" stroke="#808080" stroke-width="1.5"/>
  <text transform="scale(1.0414,.9603)" x="-205.21461" y="866.30371" fill="#808080" font-family="Sans" font-size="21.798" letter-spacing="0" word-spacing="0">
   <tspan x="-205.21461" y="866.30371">HOME</tspan>
  </text>
  <path d="m85.842 808.98h16.997a22.464 21.891 0 0 1 22.464 21.891 22.464 21.891 0 0 1 -22.464 21.891h-16.997a22.464 21.891 0 0 1 -22.464 -21.891 22.464 21.891 0 0 1 22.464 -21.891" fill="url(#ac)" fill-rule="evenodd" stroke="#808080" stroke-width="1.4755"/>
  <path d="m85.816 830.9 18.011 5e-5m-9.0054-9.0054 6e-5 18.011" fill="none" stroke="#666" stroke-width="2.6"/>
  <path transform="matrix(1.0292 0 0 1.0292 -638.03 18.197)" d="m314.08 645.98c0 37.858-30.69 68.549-68.549 68.549s-68.549-30.69-68.549-68.549 30.69-68.549 68.549-68.549 68.549 30.69 68.549 68.549z" fill="#4d4d4d" fill-rule="evenodd"/>
  <path d="m-44.872 808.98h16.997a22.464 21.891 0 0 1 22.464 21.891 22.464 21.891 0 0 1 -22.464 21.891h-16.997a22.464 21.891 0 0 1 -22.464 -21.891 22.464 21.891 0 0 1 22.464 -21.891" fill="url(#ab)" fill-rule="evenodd" stroke="#808080" stroke-width="1.4755"/>
  <path transform="translate(-630.71 33.648)" d="m586.61 796.89h16.25" fill="none" stroke="#808080" stroke-linecap="square" stroke-width="2.6"/>
  <path transform="matrix(.95052 0 0 .95052 -618.72 67.504)" d="m314.08 645.98c0 37.858-30.69 68.549-68.549 68.549s-68.549-30.69-68.549-68.549 30.69-68.549 68.549-68.549 68.549 30.69 68.549 68.549z" fill="#e6e6e6" fill-rule="evenodd" stroke="#b3b3b3" stroke-width="2.7585"/>
  <path d="m573.54 809.38h16.997a22.464 21.891 0 0 1 22.464 21.891 22.464 21.891 0 0 1 -22.464 21.891h-16.997a22.464 21.891 0 0 1 -22.464 -21.891 22.464 21.891 0 0 1 22.464 -21.891" fill="url(#al)" fill-rule="evenodd" stroke="#808080" stroke-width="1.4755"/>
  <path d="m578.58 821.67h6.9065a8.9364 5.1779 0 0 1 8.9364 5.1779v8.8433a8.9364 5.1779 0 0 1 -8.9364 5.1779h-6.9065a8.9364 5.1779 0 0 1 -8.9364 -5.1779v-8.8433a8.9364 5.1779 0 0 1 8.9364 -5.1779" fill="none" stroke="#808080" stroke-dashoffset="1.86" stroke-linecap="square" stroke-linejoin="round" stroke-width="1.7"/>
  <path d="m661.58 809.69h16.997a22.464 21.891 0 0 1 22.464 21.891 22.464 21.891 0 0 1 -22.464 21.891h-16.997a22.464 21.891 0 0 1 -22.464 -21.891 22.464 21.891 0 0 1 22.464 -21.891" fill="url(#ak)" fill-rule="evenodd" stroke="#808080" stroke-width="1.4755"/>
  <g transform="matrix(.04314 0 0 .04314 645.47 809.52)" fill="#666">
   <path d="m594.01 216.71c14.32 21.136 21.682 46.728 40.135 64.982 21.135 27.835 48.146 50.891 69.089 79.058 15.157 19.681 52.26 88.895 56.563 113.65 11.587 31.757-6.6156 144.97-18.977 176.06-13.947 16.765-30.8-16.64-26.907-30.073 0.59324-18.535 33.983-72.145 4.9221-148.19-12.159-42.353-29.542-71.59-48.844-90.855-16.772-14.701-35.813-47.095-61.382-35.941-16.885 10.637-9.5289 32.139-11.346 48.712-1.0035 101.95-1.0707 203.94-2.7005 305.87-1.2461 42.809-41.238 77.351-70.711 92.991-26.257 15.801-57.693 24.65-88.171 17.608-28.341-2.9081-57.66-23.598-58.254-54.212-1.8895-35.496 23.746-68.55 55.305-82.567 30.98-17.657 70.147-21.484 103.51-8.7916 16.302 5.1527 24.483-37.209 26.874-54.307 2.2123-129.77 3.9829-259.54 4.4354-389.33 0.36593-12.973 21.496-16.139 26.461-4.6603z" fill="#666" fill-rule="evenodd"/>
  </g>
  <path d="m741.82 803.68h97.227c5.2001 0 6.0649 2.6189 6.0609 5.3035-0.0359 23.986-28.215 47.474-54.296 47.474-26.339 0-55.404-23.233-55.306-47.474 0.0111-2.7485 0.6304-5.3035 6.3136-5.3035z" fill="url(#aj)" stroke="#808080" stroke-width="1.5"/>
  <text transform="scale(1.0107,.9895)" x="742.29596" y="840.75677" fill="#808080" font-family="Sans" font-size="21.155" letter-spacing="0" word-spacing="0">
   <tspan x="742.29596" y="840.75677">SELECT</tspan>
  </text>
  <path d="m868.82 803.68h97.227c5.2001 0 6.0649 2.6189 6.0609 5.3035-0.0359 23.986-28.215 47.474-54.296 47.474-26.339 0-55.404-23.233-55.306-47.474 0.0111-2.7485 0.6304-5.3035 6.3136-5.3035z" fill="url(#ai)" stroke="#808080" stroke-width="1.5"/>
  <text transform="scale(.9896,1.0105)" x="893.32385" y="823.77142" fill="#808080" font-family="Sans" font-size="20.715" letter-spacing="0" word-spacing="0">
   <tspan x="893.32385" y="823.77142">START</tspan>
  </text>
  <path transform="translate(-630.71 33.648)" d="m1827.2 273.31c0 30.067-24.374 54.441-54.441 54.441s-54.441-24.374-54.441-54.441 24.374-54.441 54.441-54.441 54.441 24.374 54.441 54.441z" fill="#797a7e" fill-rule="evenodd"/>
  <path transform="matrix(.93506 0 0 .93506 -515.59 51.397)" d="m1827.2 273.31c0 30.067-24.374 54.441-54.441 54.441s-54.441-24.374-54.441-54.441 24.374-54.441 54.441-54.441 54.441 24.374 54.441 54.441z" fill="url(#e)" fill-rule="evenodd"/>
  <path transform="matrix(.93506 0 0 .93506 -515.59 51.397)" d="m1827.2 273.31c0 30.067-24.374 54.441-54.441 54.441s-54.441-24.374-54.441-54.441 24.374-54.441 54.441-54.441 54.441 24.374 54.441 54.441z" fill="url(#h)" fill-rule="evenodd"/>
  <path transform="matrix(2.5757 0 0 2.5714 -15.302 -1016.5)" d="m455.3 518.14h-11.974l5.9871-10.37z" fill="none" stroke="#666" stroke-width="1.1416"/>
  <path transform="translate(-518.21 147.62)" d="m1827.2 273.31c0 30.067-24.374 54.441-54.441 54.441s-54.441-24.374-54.441-54.441 24.374-54.441 54.441-54.441 54.441 24.374 54.441 54.441z" fill="#797a7e" fill-rule="evenodd"/>
  <path transform="matrix(.93506 0 0 .93506 -403.09 165.37)" d="m1827.2 273.31c0 30.067-24.374 54.441-54.441 54.441s-54.441-24.374-54.441-54.441 24.374-54.441 54.441-54.441 54.441 24.374 54.441 54.441z" fill="url(#e)" fill-rule="evenodd"/>
  <path transform="matrix(.93506 0 0 .93506 -403.09 165.37)" d="m1827.2 273.31c0 30.067-24.374 54.441-54.441 54.441s-54.441-24.374-54.441-54.441 24.374-54.441 54.441-54.441 54.441 24.374 54.441 54.441z" fill="url(#h)" fill-rule="evenodd"/>
  <path transform="matrix(-2.0461 0 0 -2.0461 2183.5 1465.8)" d="m461.57 510.66c0 4.5482-3.6871 8.2353-8.2353 8.2353s-8.2353-3.6871-8.2353-8.2353 3.6871-8.2353 8.2353-8.2353 8.2353 3.6871 8.2353 8.2353z" fill="none" stroke="#666" stroke-linecap="round" stroke-linejoin="round" stroke-width="1.4583"/>
  <path transform="translate(-632.03 262.9)" d="m1827.2 273.31c0 30.067-24.374 54.441-54.441 54.441s-54.441-24.374-54.441-54.441 24.374-54.441 54.441-54.441 54.441 24.374 54.441 54.441z" fill="#797a7e" fill-rule="evenodd"/>
  <path transform="matrix(.93506 0 0 .93506 -516.9 280.65)" d="m1827.2 273.31c0 30.067-24.374 54.441-54.441 54.441s-54.441-24.374-54.441-54.441 24.374-54.441 54.441-54.441 54.441 24.374 54.441 54.441z" fill="url(#e)" fill-rule="evenodd"/>
  <path transform="matrix(.93506 0 0 .93506 -516.9 280.65)" d="m1827.2 273.31c0 30.067-24.374 54.441-54.441 54.441s-54.441-24.374-54.441-54.441 24.374-54.441 54.441-54.441 54.441 24.374 54.441 54.441z" fill="url(#h)" fill-rule="evenodd"/>
  <path d="m1126.5 522.05 28.319 28.319m0-28.319-28.319 28.319" fill="none" stroke="#666" stroke-width="3.3302"/>
  <path transform="translate(-746.43 148.51)" d="m1827.2 273.31c0 30.067-24.374 54.441-54.441 54.441s-54.441-24.374-54.441-54.441 24.374-54.441 54.441-54.441 54.441 24.374 54.441 54.441z" fill="#797a7e" fill-rule="evenodd"/>
  <path transform="matrix(.93506 0 0 .93506 -631.31 166.26)" d="m1827.2 273.31c0 30.067-24.374 54.441-54.441 54.441s-54.441-24.374-54.441-54.441 24.374-54.441 54.441-54.441 54.441 24.374 54.441 54.441z" fill="url(#e)" fill-rule="evenodd"/>
  <path transform="matrix(.93506 0 0 .93506 -631.31 166.26)" d="m1827.2 273.31c0 30.067-24.374 54.441-54.441 54.441s-54.441-24.374-54.441-54.441 24.374-54.441 54.441-54.441 54.441 24.374 54.441 54.441z" fill="url(#p)" fill-rule="evenodd"/>
  <path d="m1011.8 408.06h27.515v27.515h-27.515z" fill="none" stroke="#666" stroke-width="2.9184"/>
  <path transform="matrix(1.1812 0 0 1.1812 -2475.1 -36.153)" d="m1892.2 388.7c0 69.904-56.668 126.57-126.57 126.57s-126.57-56.668-126.57-126.57 56.668-126.57 126.57-126.57 126.57 56.668 126.57 126.57z" fill="none" filter="url(#g)" stroke="#fff" stroke-dashoffset="1.86" stroke-width="4.5572"/>
  <path transform="matrix(1.1812 0 0 1.1812 -2477.6 -39.457)" d="m1892.2 388.7c0 69.904-56.668 126.57-126.57 126.57s-126.57-56.668-126.57-126.57 56.668-126.57 126.57-126.57 126.57 56.668 126.57 126.57z" fill="none" filter="url(#g)" opacity=".6335" stroke="#a6a6a6" stroke-dashoffset="1.86" stroke-width="4.5572"/>
  <path d="m-440.44 554.07c7.3211 19.523 91.846 18.167 97.269 0v-57.213c0-3.2651-2.4658-7.7671-5.1519-11.117-8.7214-10.877-29.827-28.471-29.827-28.471-6.2365-6.3721-25.759-6.2365-31.725 0 0 0-18.794 19.04-26.031 28.471-2.1704 2.8285-4.5347 7.7278-4.5347 11.117z" fill="url(#d)"/>
  <path d="m-440.44 554.07c7.3211 19.523 91.846 18.167 97.269 0v-57.213c0-3.2651-2.4658-7.7671-5.1519-11.117-8.7214-10.877-29.827-28.471-29.827-28.471-6.2365-6.3721-25.759-6.2365-31.725 0 0 0-18.794 19.04-26.031 28.471-2.1704 2.8285-4.5347 7.7278-4.5347 11.117z" fill="url(#o)"/>
  <path d="m-440.44 554.07c7.3211 19.523 91.846 18.167 97.269 0v-57.213c0-3.2651-2.4658-7.7671-5.1519-11.117-8.7214-10.877-29.827-28.471-29.827-28.471-6.2365-6.3721-25.759-6.2365-31.725 0 0 0-18.794 19.04-26.031 28.471-2.1704 2.8285-4.5347 7.7278-4.5347 11.117z" fill="none" stroke="#949c9e" stroke-width="7.271"/>
  <path transform="matrix(2.5757 0 0 -1.4388 -1550 1267.7)" d="m455.3 518.14h-11.974l5.9871-10.37z" fill="none" stroke="#666" stroke-width="1.1416"/>
  <g transform="matrix(1 0 0 -1 0 840.74)">
   <path d="m-440.44 554.07c7.3211 19.523 91.846 18.167 97.269 0v-57.213c0-3.2651-2.4658-7.7671-5.1519-11.117-8.7214-10.877-29.827-28.471-29.827-28.471-6.2365-6.3721-25.759-6.2365-31.725 0 0 0-18.794 19.04-26.031 28.471-2.1704 2.8285-4.5347 7.7278-4.5347 11.117z" fill="url(#d)"/>
   <path d="m-440.44 554.07c7.3211 19.523 91.846 18.167 97.269 0v-57.213c0-3.2651-2.4658-7.7671-5.1519-11.117-8.7214-10.877-29.827-28.471-29.827-28.471-6.2365-6.3721-25.759-6.2365-31.725 0 0 0-18.794 19.04-26.031 28.471-2.1704 2.8285-4.5347 7.7278-4.5347 11.117z" fill="url(#n)"/>
   <path d="m-440.44 554.07c7.3211 19.523 91.846 18.167 97.269 0v-57.213c0-3.2651-2.4658-7.7671-5.1519-11.117-8.7214-10.877-29.827-28.471-29.827-28.471-6.2365-6.3721-25.759-6.2365-31.725 0 0 0-18.794 19.04-26.031 28.471-2.1704 2.8285-4.5347 7.7278-4.5347 11.117z" fill="none" stroke="#949c9e" stroke-width="7.271"/>
  </g>
  <path transform="matrix(2.5757 0 0 1.4388 -1550.2 -419.98)" d="m455.3 518.14h-11.974l5.9871-10.37z" fill="none" stroke="#666" stroke-width="1.1416"/>
  <g transform="matrix(0 1 1 0 -812.87 813.03)">
   <path d="m-440.44 554.07c7.3211 19.523 91.846 18.167 97.269 0v-57.213c0-3.2651-2.4658-7.7671-5.1519-11.117-8.7214-10.877-29.827-28.471-29.827-28.471-6.2365-6.3721-25.759-6.2365-31.725 0 0 0-18.794 19.04-26.031 28.471-2.1704 2.8285-4.5347 7.7278-4.5347 11.117z" fill="url(#d)"/>
   <path d="m-440.44 554.07c7.3211 19.523 91.846 18.167 97.269 0v-57.213c0-3.2651-2.4658-7.7671-5.1519-11.117-8.7214-10.877-29.827-28.471-29.827-28.471-6.2365-6.3721-25.759-6.2365-31.725 0 0 0-18.794 19.04-26.031 28.471-2.1704 2.8285-4.5347 7.7278-4.5347 11.117z" fill="url(#m)"/>
   <path d="m-440.44 554.07c7.3211 19.523 91.846 18.167 97.269 0v-57.213c0-3.2651-2.4658-7.7671-5.1519-11.117-8.7214-10.877-29.827-28.471-29.827-28.471-6.2365-6.3721-25.759-6.2365-31.725 0 0 0-18.794 19.04-26.031 28.471-2.1704 2.8285-4.5347 7.7278-4.5347 11.117z" fill="none" stroke="#949c9e" stroke-width="7.271"/>
  </g>
  <path transform="matrix(0 2.5757 -1.4388 0 452.86 -733.16)" d="m455.3 518.14h-11.974l5.9871-10.37z" fill="none" stroke="#666" stroke-width="1.1416"/>
  <g transform="matrix(0 1 -1 0 27.877 813.03)">
   <path d="m-440.44 554.07c7.3211 19.523 91.846 18.167 97.269 0v-57.213c0-3.2651-2.4658-7.7671-5.1519-11.117-8.7214-10.877-29.827-28.471-29.827-28.471-6.2365-6.3721-25.759-6.2365-31.725 0 0 0-18.794 19.04-26.031 28.471-2.1704 2.8285-4.5347 7.7278-4.5347 11.117z" fill="url(#d)"/>
   <path d="m-440.44 554.07c7.3211 19.523 91.846 18.167 97.269 0v-57.213c0-3.2651-2.4658-7.7671-5.1519-11.117-8.7214-10.877-29.827-28.471-29.827-28.471-6.2365-6.3721-25.759-6.2365-31.725 0 0 0-18.794 19.04-26.031 28.471-2.1704 2.8285-4.5347 7.7278-4.5347 11.117z" fill="url(#l)"/>
   <path d="m-440.44 554.07c7.3211 19.523 91.846 18.167 97.269 0v-57.213c0-3.2651-2.4658-7.7671-5.1519-11.117-8.7214-10.877-29.827-28.471-29.827-28.471-6.2365-6.3721-25.759-6.2365-31.725 0 0 0-18.794 19.04-26.031 28.471-2.1704 2.8285-4.5347 7.7278-4.5347 11.117z" fill="none" stroke="#949c9e" stroke-width="7.271"/>
  </g>
  <path transform="matrix(0 2.5757 1.4388 0 -1238 -734.41)" d="m455.3 518.14h-11.974l5.9871-10.37z" fill="none" stroke="#666" stroke-width="1.1416"/>
 </g>
</svg>
